<mxfile host="app.diagrams.net" modified="2021-04-25T08:11:01.561Z" agent="5.0 (Windows NT 10.0; Win64; x64) AppleWebKit/537.36 (KHTML, like Gecko) Chrome/90.0.4430.85 Safari/537.36" etag="YHVHTCNW9O1BHMfnSjzk" version="14.6.6" type="github">
  <diagram id="Sv70wMs5H2Pimi9rrGB1" name="Page-1">
    <mxGraphModel dx="2036" dy="2421" grid="1" gridSize="10" guides="1" tooltips="1" connect="1" arrows="1" fold="1" page="1" pageScale="1" pageWidth="827" pageHeight="1169" math="0" shadow="0">
      <root>
        <mxCell id="0" />
        <mxCell id="1" parent="0" />
        <mxCell id="KHrVx482zbJUYyYbqTH--3" style="edgeStyle=orthogonalEdgeStyle;rounded=0;orthogonalLoop=1;jettySize=auto;html=1;endArrow=none;endFill=0;entryX=0.004;entryY=0.586;entryDx=0;entryDy=0;entryPerimeter=0;" parent="1" source="KHrVx482zbJUYyYbqTH--4" target="KHrVx482zbJUYyYbqTH--55" edge="1">
          <mxGeometry relative="1" as="geometry">
            <mxPoint x="850" y="321" as="targetPoint" />
          </mxGeometry>
        </mxCell>
        <mxCell id="KHrVx482zbJUYyYbqTH--99" style="edgeStyle=orthogonalEdgeStyle;rounded=0;orthogonalLoop=1;jettySize=auto;html=1;entryX=0.59;entryY=0.997;entryDx=0;entryDy=0;entryPerimeter=0;endArrow=none;endFill=0;" parent="1" source="KHrVx482zbJUYyYbqTH--4" target="KHrVx482zbJUYyYbqTH--9" edge="1">
          <mxGeometry relative="1" as="geometry">
            <Array as="points">
              <mxPoint x="600" y="230" />
              <mxPoint x="361" y="230" />
              <mxPoint x="361" y="-80" />
            </Array>
          </mxGeometry>
        </mxCell>
        <mxCell id="KHrVx482zbJUYyYbqTH--100" style="edgeStyle=orthogonalEdgeStyle;rounded=0;orthogonalLoop=1;jettySize=auto;html=1;entryX=0.375;entryY=1.006;entryDx=0;entryDy=0;entryPerimeter=0;endArrow=none;endFill=0;" parent="1" source="KHrVx482zbJUYyYbqTH--4" target="KHrVx482zbJUYyYbqTH--83" edge="1">
          <mxGeometry relative="1" as="geometry">
            <Array as="points">
              <mxPoint x="610" y="166" />
              <mxPoint x="587" y="166" />
            </Array>
          </mxGeometry>
        </mxCell>
        <mxCell id="KHrVx482zbJUYyYbqTH--122" style="edgeStyle=orthogonalEdgeStyle;rounded=0;jumpStyle=none;orthogonalLoop=1;jettySize=auto;html=1;exitX=0.75;exitY=0;exitDx=0;exitDy=0;entryX=0;entryY=0.5;entryDx=0;entryDy=0;endArrow=none;endFill=0;strokeColor=#000000;" parent="1" source="KHrVx482zbJUYyYbqTH--4" target="KHrVx482zbJUYyYbqTH--78" edge="1">
          <mxGeometry relative="1" as="geometry">
            <Array as="points">
              <mxPoint x="680" y="291" />
              <mxPoint x="680" y="200" />
            </Array>
          </mxGeometry>
        </mxCell>
        <mxCell id="KHrVx482zbJUYyYbqTH--146" style="edgeStyle=orthogonalEdgeStyle;rounded=0;jumpStyle=none;orthogonalLoop=1;jettySize=auto;html=1;exitX=0.5;exitY=0;exitDx=0;exitDy=0;entryX=0;entryY=0.75;entryDx=0;entryDy=0;endArrow=none;endFill=0;strokeColor=#000000;" parent="1" source="KHrVx482zbJUYyYbqTH--4" target="KHrVx482zbJUYyYbqTH--105" edge="1">
          <mxGeometry relative="1" as="geometry">
            <Array as="points">
              <mxPoint x="630" y="156" />
              <mxPoint x="670" y="156" />
            </Array>
          </mxGeometry>
        </mxCell>
        <mxCell id="KHrVx482zbJUYyYbqTH--4" value="&amp;lt;&amp;lt;control&amp;gt;&amp;gt;&lt;br&gt;Controller" style="rounded=0;whiteSpace=wrap;html=1;" parent="1" vertex="1">
          <mxGeometry x="570" y="291" width="120" height="60" as="geometry" />
        </mxCell>
        <mxCell id="KHrVx482zbJUYyYbqTH--102" style="edgeStyle=orthogonalEdgeStyle;rounded=0;orthogonalLoop=1;jettySize=auto;html=1;exitX=1;exitY=0.5;exitDx=0;exitDy=0;entryX=0.5;entryY=0;entryDx=0;entryDy=0;endArrow=none;endFill=0;jumpStyle=none;" parent="1" source="KHrVx482zbJUYyYbqTH--9" target="KHrVx482zbJUYyYbqTH--55" edge="1">
          <mxGeometry relative="1" as="geometry" />
        </mxCell>
        <mxCell id="KHrVx482zbJUYyYbqTH--111" style="edgeStyle=orthogonalEdgeStyle;rounded=0;jumpStyle=none;orthogonalLoop=1;jettySize=auto;html=1;endArrow=none;endFill=0;strokeColor=#000000;" parent="1" source="KHrVx482zbJUYyYbqTH--9" target="KHrVx482zbJUYyYbqTH--82" edge="1">
          <mxGeometry relative="1" as="geometry">
            <Array as="points">
              <mxPoint x="548" y="-30" />
            </Array>
          </mxGeometry>
        </mxCell>
        <mxCell id="KHrVx482zbJUYyYbqTH--9" value="&amp;lt;&amp;lt;boundary&amp;gt;&amp;gt;&lt;br&gt;Database Connection" style="rounded=0;whiteSpace=wrap;html=1;" parent="1" vertex="1">
          <mxGeometry x="350" y="-139.82999999999998" width="120" height="60" as="geometry" />
        </mxCell>
        <mxCell id="KHrVx482zbJUYyYbqTH--97" style="edgeStyle=orthogonalEdgeStyle;rounded=0;orthogonalLoop=1;jettySize=auto;html=1;entryX=0;entryY=0.5;entryDx=0;entryDy=0;endArrow=none;endFill=0;" parent="1" source="KHrVx482zbJUYyYbqTH--11" target="KHrVx482zbJUYyYbqTH--9" edge="1">
          <mxGeometry relative="1" as="geometry" />
        </mxCell>
        <mxCell id="KHrVx482zbJUYyYbqTH--11" value="Database" style="shape=umlActor;verticalLabelPosition=bottom;verticalAlign=top;html=1;outlineConnect=0;" parent="1" vertex="1">
          <mxGeometry x="170" y="-79" width="30" height="60" as="geometry" />
        </mxCell>
        <mxCell id="KHrVx482zbJUYyYbqTH--89" style="edgeStyle=orthogonalEdgeStyle;rounded=0;orthogonalLoop=1;jettySize=auto;html=1;entryX=0.072;entryY=0.454;entryDx=0;entryDy=0;entryPerimeter=0;endArrow=none;endFill=0;" parent="1" source="KHrVx482zbJUYyYbqTH--14" target="KHrVx482zbJUYyYbqTH--16" edge="1">
          <mxGeometry relative="1" as="geometry" />
        </mxCell>
        <mxCell id="KHrVx482zbJUYyYbqTH--14" value="Scheduler" style="shape=umlActor;verticalLabelPosition=bottom;verticalAlign=top;html=1;outlineConnect=0;" parent="1" vertex="1">
          <mxGeometry x="160" y="287.5" width="30" height="60" as="geometry" />
        </mxCell>
        <mxCell id="KHrVx482zbJUYyYbqTH--15" style="edgeStyle=orthogonalEdgeStyle;rounded=0;orthogonalLoop=1;jettySize=auto;html=1;exitX=1;exitY=0.5;exitDx=0;exitDy=0;entryX=0;entryY=0.5;entryDx=0;entryDy=0;endArrow=none;endFill=0;" parent="1" source="KHrVx482zbJUYyYbqTH--16" target="KHrVx482zbJUYyYbqTH--4" edge="1">
          <mxGeometry relative="1" as="geometry" />
        </mxCell>
        <mxCell id="KHrVx482zbJUYyYbqTH--16" value="&lt;&lt;boundary&gt;&gt;&#xa;Check Request" style="swimlane;fontStyle=0;childLayout=stackLayout;horizontal=1;startSize=50;horizontalStack=0;resizeParent=1;resizeParentMax=0;resizeLast=0;collapsible=1;marginBottom=0;" parent="1" vertex="1">
          <mxGeometry x="320" y="283.5" width="140" height="76" as="geometry">
            <mxRectangle x="330" y="270" width="120" height="50" as="alternateBounds" />
          </mxGeometry>
        </mxCell>
        <mxCell id="KHrVx482zbJUYyYbqTH--17" value="user&#39;s identity" style="text;align=left;verticalAlign=top;spacingLeft=4;spacingRight=4;overflow=hidden;rotatable=0;points=[[0,0.5],[1,0.5]];portConstraint=eastwest;fillColor=#ffffff;" parent="KHrVx482zbJUYyYbqTH--16" vertex="1">
          <mxGeometry y="50" width="140" height="26" as="geometry" />
        </mxCell>
        <mxCell id="KHrVx482zbJUYyYbqTH--22" value="" style="verticalLabelPosition=bottom;verticalAlign=top;html=1;shape=mxgraph.basic.smiley" parent="1" vertex="1">
          <mxGeometry x="548" y="270" width="40" height="40" as="geometry" />
        </mxCell>
        <mxCell id="KHrVx482zbJUYyYbqTH--23" value="" style="verticalLabelPosition=bottom;verticalAlign=top;html=1;shape=mxgraph.basic.smiley" parent="1" vertex="1">
          <mxGeometry x="330" y="-160.82999999999998" width="40" height="40" as="geometry" />
        </mxCell>
        <mxCell id="KHrVx482zbJUYyYbqTH--24" value="" style="shape=note2;boundedLbl=1;whiteSpace=wrap;html=1;size=17;verticalAlign=top;align=center;fillColor=#ffffff;" parent="1" vertex="1">
          <mxGeometry x="300" y="264.5" width="40" height="40" as="geometry" />
        </mxCell>
        <mxCell id="KHrVx482zbJUYyYbqTH--39" value="" style="group;rotation=-180;" parent="1" vertex="1" connectable="0">
          <mxGeometry x="670" y="-130" width="112" height="20" as="geometry" />
        </mxCell>
        <mxCell id="KHrVx482zbJUYyYbqTH--40" value="requests-save" style="text;html=1;strokeColor=none;fillColor=none;align=center;verticalAlign=middle;whiteSpace=wrap;rounded=0;rotation=-360;" parent="KHrVx482zbJUYyYbqTH--39" vertex="1">
          <mxGeometry x="29" y="-3" width="83" height="20" as="geometry" />
        </mxCell>
        <mxCell id="KHrVx482zbJUYyYbqTH--41" value="" style="triangle;whiteSpace=wrap;html=1;fillColor=#000000;rotation=-180;" parent="KHrVx482zbJUYyYbqTH--39" vertex="1">
          <mxGeometry x="19" y="1" width="10" height="13.33" as="geometry" />
        </mxCell>
        <mxCell id="KHrVx482zbJUYyYbqTH--42" value="&lt;&lt;entity&gt;&gt;&#xa;E-book Return Request" style="swimlane;fontStyle=0;childLayout=stackLayout;horizontal=1;startSize=50;horizontalStack=0;resizeParent=1;resizeParentMax=0;resizeLast=0;collapsible=1;marginBottom=0;" parent="1" vertex="1">
          <mxGeometry x="1240" y="462" width="140" height="102" as="geometry">
            <mxRectangle x="330" y="270" width="120" height="50" as="alternateBounds" />
          </mxGeometry>
        </mxCell>
        <mxCell id="KHrVx482zbJUYyYbqTH--43" value="guest&#39;s ID" style="text;align=left;verticalAlign=top;spacingLeft=4;spacingRight=4;overflow=hidden;rotatable=0;points=[[0,0.5],[1,0.5]];portConstraint=eastwest;fillColor=#ffffff;" parent="KHrVx482zbJUYyYbqTH--42" vertex="1">
          <mxGeometry y="50" width="140" height="26" as="geometry" />
        </mxCell>
        <mxCell id="KHrVx482zbJUYyYbqTH--75" value="issue&#39;s ID" style="text;align=left;verticalAlign=top;spacingLeft=4;spacingRight=4;overflow=hidden;rotatable=0;points=[[0,0.5],[1,0.5]];portConstraint=eastwest;fillColor=#ffffff;" parent="KHrVx482zbJUYyYbqTH--42" vertex="1">
          <mxGeometry y="76" width="140" height="26" as="geometry" />
        </mxCell>
        <mxCell id="KHrVx482zbJUYyYbqTH--47" value="" style="shape=note2;boundedLbl=1;whiteSpace=wrap;html=1;size=17;verticalAlign=top;align=center;fillColor=#ffffff;" parent="1" vertex="1">
          <mxGeometry x="1220" y="443" width="40" height="40" as="geometry" />
        </mxCell>
        <mxCell id="KHrVx482zbJUYyYbqTH--48" value="" style="group;rotation=0;" parent="1" vertex="1" connectable="0">
          <mxGeometry x="700" y="300" width="112" height="20" as="geometry" />
        </mxCell>
        <mxCell id="KHrVx482zbJUYyYbqTH--49" value="conveys-requests" style="text;html=1;strokeColor=none;fillColor=none;align=center;verticalAlign=middle;whiteSpace=wrap;rounded=0;rotation=0;" parent="KHrVx482zbJUYyYbqTH--48" vertex="1">
          <mxGeometry width="100" height="20" as="geometry" />
        </mxCell>
        <mxCell id="KHrVx482zbJUYyYbqTH--50" value="" style="triangle;whiteSpace=wrap;html=1;fillColor=#000000;rotation=0;" parent="KHrVx482zbJUYyYbqTH--48" vertex="1">
          <mxGeometry x="102" y="4" width="10" height="13.33" as="geometry" />
        </mxCell>
        <mxCell id="KHrVx482zbJUYyYbqTH--51" value="" style="group" parent="1" vertex="1" connectable="0">
          <mxGeometry x="480" y="296.66" width="58" height="20" as="geometry" />
        </mxCell>
        <mxCell id="KHrVx482zbJUYyYbqTH--52" value="receives" style="text;html=1;strokeColor=none;fillColor=none;align=center;verticalAlign=middle;whiteSpace=wrap;rounded=0;" parent="KHrVx482zbJUYyYbqTH--51" vertex="1">
          <mxGeometry width="40" height="20" as="geometry" />
        </mxCell>
        <mxCell id="KHrVx482zbJUYyYbqTH--53" value="" style="triangle;whiteSpace=wrap;html=1;fillColor=#000000;" parent="KHrVx482zbJUYyYbqTH--51" vertex="1">
          <mxGeometry x="48" y="5.670000000000016" width="10" height="13.33" as="geometry" />
        </mxCell>
        <mxCell id="KHrVx482zbJUYyYbqTH--112" style="edgeStyle=orthogonalEdgeStyle;rounded=0;jumpStyle=none;orthogonalLoop=1;jettySize=auto;html=1;exitX=0.75;exitY=1;exitDx=0;exitDy=0;endArrow=none;endFill=0;strokeColor=#000000;" parent="1" source="KHrVx482zbJUYyYbqTH--55" target="KHrVx482zbJUYyYbqTH--42" edge="1">
          <mxGeometry relative="1" as="geometry">
            <Array as="points">
              <mxPoint x="1245" y="440" />
              <mxPoint x="1310" y="440" />
            </Array>
          </mxGeometry>
        </mxCell>
        <mxCell id="KHrVx482zbJUYyYbqTH--113" style="edgeStyle=orthogonalEdgeStyle;rounded=0;jumpStyle=none;orthogonalLoop=1;jettySize=auto;html=1;exitX=0.25;exitY=1;exitDx=0;exitDy=0;entryX=0.5;entryY=0;entryDx=0;entryDy=0;endArrow=none;endFill=0;strokeColor=#000000;" parent="1" source="KHrVx482zbJUYyYbqTH--55" target="KHrVx482zbJUYyYbqTH--64" edge="1">
          <mxGeometry relative="1" as="geometry">
            <Array as="points">
              <mxPoint x="1175" y="440" />
              <mxPoint x="1130" y="440" />
            </Array>
          </mxGeometry>
        </mxCell>
        <mxCell id="KHrVx482zbJUYyYbqTH--55" value="&lt;&lt;entity&gt;&gt;&#xa;Archiver" style="swimlane;fontStyle=0;childLayout=stackLayout;horizontal=1;startSize=50;horizontalStack=0;resizeParent=1;resizeParentMax=0;resizeLast=0;collapsible=1;marginBottom=0;" parent="1" vertex="1">
          <mxGeometry x="1140" y="277" width="140" height="76" as="geometry" />
        </mxCell>
        <mxCell id="KHrVx482zbJUYyYbqTH--56" value="current tracking number" style="text;align=left;verticalAlign=top;spacingLeft=4;spacingRight=4;overflow=hidden;rotatable=0;points=[[0,0.5],[1,0.5]];portConstraint=eastwest;fillColor=#ffffff;" parent="KHrVx482zbJUYyYbqTH--55" vertex="1">
          <mxGeometry y="50" width="140" height="26" as="geometry" />
        </mxCell>
        <mxCell id="KHrVx482zbJUYyYbqTH--57" value="" style="verticalLabelPosition=bottom;verticalAlign=top;html=1;shape=mxgraph.basic.smiley" parent="1" vertex="1">
          <mxGeometry x="1120" y="261" width="40" height="40" as="geometry" />
        </mxCell>
        <mxCell id="KHrVx482zbJUYyYbqTH--64" value="&lt;&lt;entity&gt;&gt;&#xa;Restrict Request" style="swimlane;fontStyle=0;childLayout=stackLayout;horizontal=1;startSize=50;horizontalStack=0;resizeParent=1;resizeParentMax=0;resizeLast=0;collapsible=1;marginBottom=0;" parent="1" vertex="1">
          <mxGeometry x="1060" y="462" width="140" height="76" as="geometry">
            <mxRectangle x="330" y="270" width="120" height="50" as="alternateBounds" />
          </mxGeometry>
        </mxCell>
        <mxCell id="KHrVx482zbJUYyYbqTH--65" value="update parameters" style="text;align=left;verticalAlign=top;spacingLeft=4;spacingRight=4;overflow=hidden;rotatable=0;points=[[0,0.5],[1,0.5]];portConstraint=eastwest;fillColor=#ffffff;" parent="KHrVx482zbJUYyYbqTH--64" vertex="1">
          <mxGeometry y="50" width="140" height="26" as="geometry" />
        </mxCell>
        <mxCell id="KHrVx482zbJUYyYbqTH--69" value="" style="shape=note2;boundedLbl=1;whiteSpace=wrap;html=1;size=17;verticalAlign=top;align=center;fillColor=#ffffff;" parent="1" vertex="1">
          <mxGeometry x="1040" y="440" width="40" height="40" as="geometry" />
        </mxCell>
        <mxCell id="KHrVx482zbJUYyYbqTH--71" value="" style="group;rotation=90;" parent="1" vertex="1" connectable="0">
          <mxGeometry x="1130" y="390" width="73" height="20" as="geometry" />
        </mxCell>
        <mxCell id="KHrVx482zbJUYyYbqTH--72" value="generates" style="text;html=1;strokeColor=none;fillColor=none;align=center;verticalAlign=middle;whiteSpace=wrap;rounded=0;rotation=-90;" parent="KHrVx482zbJUYyYbqTH--71" vertex="1">
          <mxGeometry x="4" y="-4" width="65.17857142857143" height="20" as="geometry" />
        </mxCell>
        <mxCell id="KHrVx482zbJUYyYbqTH--73" value="" style="triangle;whiteSpace=wrap;html=1;fillColor=#000000;rotation=90;" parent="KHrVx482zbJUYyYbqTH--71" vertex="1">
          <mxGeometry x="35" y="34" width="6.517857142857143" height="13.33" as="geometry" />
        </mxCell>
        <mxCell id="KHrVx482zbJUYyYbqTH--109" value="" style="edgeStyle=orthogonalEdgeStyle;rounded=0;jumpStyle=none;orthogonalLoop=1;jettySize=auto;html=1;endArrow=none;endFill=0;strokeColor=#000000;" parent="1" source="KHrVx482zbJUYyYbqTH--76" target="KHrVx482zbJUYyYbqTH--92" edge="1">
          <mxGeometry relative="1" as="geometry">
            <Array as="points">
              <mxPoint x="1080" y="201" />
              <mxPoint x="1080" y="201" />
            </Array>
          </mxGeometry>
        </mxCell>
        <mxCell id="KHrVx482zbJUYyYbqTH--124" style="edgeStyle=orthogonalEdgeStyle;rounded=0;jumpStyle=none;orthogonalLoop=1;jettySize=auto;html=1;exitX=1;exitY=0.25;exitDx=0;exitDy=0;endArrow=none;endFill=0;strokeColor=#000000;" parent="1" source="KHrVx482zbJUYyYbqTH--76" target="KHrVx482zbJUYyYbqTH--93" edge="1">
          <mxGeometry relative="1" as="geometry" />
        </mxCell>
        <mxCell id="KHrVx482zbJUYyYbqTH--76" value="&lt;&lt;boundary&gt;&gt;&#xa;Notification Contents" style="swimlane;fontStyle=0;childLayout=stackLayout;horizontal=1;startSize=50;horizontalStack=0;resizeParent=1;resizeParentMax=0;resizeLast=0;collapsible=1;marginBottom=0;" parent="1" vertex="1">
          <mxGeometry x="888" y="111" width="140" height="180" as="geometry">
            <mxRectangle x="330" y="270" width="120" height="50" as="alternateBounds" />
          </mxGeometry>
        </mxCell>
        <mxCell id="KHrVx482zbJUYyYbqTH--77" value="geust&#39;s name" style="text;align=left;verticalAlign=top;spacingLeft=4;spacingRight=4;overflow=hidden;rotatable=0;points=[[0,0.5],[1,0.5]];portConstraint=eastwest;fillColor=#ffffff;" parent="KHrVx482zbJUYyYbqTH--76" vertex="1">
          <mxGeometry y="50" width="140" height="26" as="geometry" />
        </mxCell>
        <mxCell id="KHrVx482zbJUYyYbqTH--78" value="book&#39;s name" style="text;align=left;verticalAlign=top;spacingLeft=4;spacingRight=4;overflow=hidden;rotatable=0;points=[[0,0.5],[1,0.5]];portConstraint=eastwest;fillColor=#ffffff;" parent="KHrVx482zbJUYyYbqTH--76" vertex="1">
          <mxGeometry y="76" width="140" height="26" as="geometry" />
        </mxCell>
        <mxCell id="KHrVx482zbJUYyYbqTH--79" value="issue period" style="text;align=left;verticalAlign=top;spacingLeft=4;spacingRight=4;overflow=hidden;rotatable=0;points=[[0,0.5],[1,0.5]];portConstraint=eastwest;fillColor=#ffffff;" parent="KHrVx482zbJUYyYbqTH--76" vertex="1">
          <mxGeometry y="102" width="140" height="26" as="geometry" />
        </mxCell>
        <mxCell id="KHrVx482zbJUYyYbqTH--80" value="guest&#39;s phone number" style="text;align=left;verticalAlign=top;spacingLeft=4;spacingRight=4;overflow=hidden;rotatable=0;points=[[0,0.5],[1,0.5]];portConstraint=eastwest;fillColor=#ffffff;" parent="KHrVx482zbJUYyYbqTH--76" vertex="1">
          <mxGeometry y="128" width="140" height="26" as="geometry" />
        </mxCell>
        <mxCell id="KHrVx482zbJUYyYbqTH--81" value="guest&#39;s e-mail" style="text;align=left;verticalAlign=top;spacingLeft=4;spacingRight=4;overflow=hidden;rotatable=0;points=[[0,0.5],[1,0.5]];portConstraint=eastwest;fillColor=#ffffff;" parent="KHrVx482zbJUYyYbqTH--76" vertex="1">
          <mxGeometry y="154" width="140" height="26" as="geometry" />
        </mxCell>
        <mxCell id="KHrVx482zbJUYyYbqTH--101" style="edgeStyle=orthogonalEdgeStyle;rounded=0;orthogonalLoop=1;jettySize=auto;html=1;exitX=1;exitY=0.5;exitDx=0;exitDy=0;entryX=0.25;entryY=0;entryDx=0;entryDy=0;endArrow=none;endFill=0;" parent="1" source="KHrVx482zbJUYyYbqTH--82" target="KHrVx482zbJUYyYbqTH--55" edge="1">
          <mxGeometry relative="1" as="geometry" />
        </mxCell>
        <mxCell id="KHrVx482zbJUYyYbqTH--117" style="edgeStyle=orthogonalEdgeStyle;rounded=0;jumpStyle=none;orthogonalLoop=1;jettySize=auto;html=1;exitX=0.75;exitY=1;exitDx=0;exitDy=0;entryX=0.5;entryY=0;entryDx=0;entryDy=0;endArrow=none;endFill=0;strokeColor=#000000;" parent="1" source="KHrVx482zbJUYyYbqTH--82" target="KHrVx482zbJUYyYbqTH--105" edge="1">
          <mxGeometry relative="1" as="geometry" />
        </mxCell>
        <mxCell id="KHrVx482zbJUYyYbqTH--82" value="&lt;&lt;entity&gt;&gt;&#xa;Postprocessor" style="swimlane;fontStyle=0;childLayout=stackLayout;horizontal=1;startSize=50;horizontalStack=0;resizeParent=1;resizeParentMax=0;resizeLast=0;collapsible=1;marginBottom=0;" parent="1" vertex="1">
          <mxGeometry x="534" y="-35.17" width="140" height="76" as="geometry" />
        </mxCell>
        <mxCell id="KHrVx482zbJUYyYbqTH--83" value="Post Processing Criteria" style="text;align=left;verticalAlign=top;spacingLeft=4;spacingRight=4;overflow=hidden;rotatable=0;points=[[0,0.5],[1,0.5]];portConstraint=eastwest;fillColor=#ffffff;" parent="KHrVx482zbJUYyYbqTH--82" vertex="1">
          <mxGeometry y="50" width="140" height="26" as="geometry" />
        </mxCell>
        <mxCell id="KHrVx482zbJUYyYbqTH--84" value="" style="verticalLabelPosition=bottom;verticalAlign=top;html=1;shape=mxgraph.basic.smiley" parent="1" vertex="1">
          <mxGeometry x="516" y="-55.17" width="40" height="40" as="geometry" />
        </mxCell>
        <mxCell id="KHrVx482zbJUYyYbqTH--92" value="E-mail Svc" style="shape=umlActor;verticalLabelPosition=bottom;verticalAlign=top;html=1;outlineConnect=0;" parent="1" vertex="1">
          <mxGeometry x="1110" y="166" width="30" height="60" as="geometry" />
        </mxCell>
        <mxCell id="KHrVx482zbJUYyYbqTH--93" value="SMS Svc" style="shape=umlActor;verticalLabelPosition=bottom;verticalAlign=top;html=1;outlineConnect=0;" parent="1" vertex="1">
          <mxGeometry x="1110" y="55" width="30" height="60" as="geometry" />
        </mxCell>
        <mxCell id="KHrVx482zbJUYyYbqTH--98" value="" style="group" parent="1" vertex="1" connectable="0">
          <mxGeometry x="364" y="101.66500000000002" width="20" height="124.33499999999998" as="geometry" />
        </mxCell>
        <mxCell id="KHrVx482zbJUYyYbqTH--35" value="" style="group;rotation=90;" parent="KHrVx482zbJUYyYbqTH--98" vertex="1" connectable="0">
          <mxGeometry x="-46" y="58.33499999999998" width="112" height="20" as="geometry" />
        </mxCell>
        <mxCell id="KHrVx482zbJUYyYbqTH--36" value="conveys-requests" style="text;html=1;strokeColor=none;fillColor=none;align=center;verticalAlign=middle;whiteSpace=wrap;rounded=0;rotation=-90;" parent="KHrVx482zbJUYyYbqTH--35" vertex="1">
          <mxGeometry x="3" y="-6" width="100" height="20" as="geometry" />
        </mxCell>
        <mxCell id="KHrVx482zbJUYyYbqTH--37" value="" style="triangle;whiteSpace=wrap;html=1;fillColor=#000000;rotation=-90;" parent="KHrVx482zbJUYyYbqTH--98" vertex="1">
          <mxGeometry x="3" y="-1.6650000000000205" width="10" height="13.33" as="geometry" />
        </mxCell>
        <mxCell id="KHrVx482zbJUYyYbqTH--121" style="edgeStyle=orthogonalEdgeStyle;rounded=0;jumpStyle=none;orthogonalLoop=1;jettySize=auto;html=1;endArrow=none;endFill=0;strokeColor=#000000;entryX=0;entryY=0.25;entryDx=0;entryDy=0;" parent="1" source="KHrVx482zbJUYyYbqTH--105" target="KHrVx482zbJUYyYbqTH--76" edge="1">
          <mxGeometry relative="1" as="geometry" />
        </mxCell>
        <mxCell id="KHrVx482zbJUYyYbqTH--105" value="&amp;lt;&amp;lt;entity&amp;gt;&amp;gt;&lt;br&gt;Notification Builder" style="rounded=0;whiteSpace=wrap;html=1;" parent="1" vertex="1">
          <mxGeometry x="670" y="126" width="120" height="60" as="geometry" />
        </mxCell>
        <mxCell id="KHrVx482zbJUYyYbqTH--114" value="" style="group;rotation=90;" parent="1" vertex="1" connectable="0">
          <mxGeometry x="1220" y="386" width="73" height="20" as="geometry" />
        </mxCell>
        <mxCell id="KHrVx482zbJUYyYbqTH--115" value="generates" style="text;html=1;strokeColor=none;fillColor=none;align=center;verticalAlign=middle;whiteSpace=wrap;rounded=0;rotation=-90;" parent="KHrVx482zbJUYyYbqTH--114" vertex="1">
          <mxGeometry x="4" y="-4" width="65.17857142857143" height="20" as="geometry" />
        </mxCell>
        <mxCell id="KHrVx482zbJUYyYbqTH--116" value="" style="triangle;whiteSpace=wrap;html=1;fillColor=#000000;rotation=90;" parent="KHrVx482zbJUYyYbqTH--114" vertex="1">
          <mxGeometry x="35" y="34" width="6.517857142857143" height="13.33" as="geometry" />
        </mxCell>
        <mxCell id="KHrVx482zbJUYyYbqTH--118" value="" style="verticalLabelPosition=bottom;verticalAlign=top;html=1;shape=mxgraph.basic.smiley" parent="1" vertex="1">
          <mxGeometry x="650" y="105" width="40" height="40" as="geometry" />
        </mxCell>
        <mxCell id="KHrVx482zbJUYyYbqTH--119" value="" style="shape=note2;boundedLbl=1;whiteSpace=wrap;html=1;size=17;verticalAlign=top;align=center;fillColor=#ffffff;" parent="1" vertex="1">
          <mxGeometry x="870" y="90" width="40" height="40" as="geometry" />
        </mxCell>
        <mxCell id="KHrVx482zbJUYyYbqTH--126" value="" style="group" parent="1" vertex="1" connectable="0">
          <mxGeometry x="570" y="46.005000000000024" width="20" height="124.33499999999998" as="geometry" />
        </mxCell>
        <mxCell id="KHrVx482zbJUYyYbqTH--127" value="" style="group;rotation=90;" parent="KHrVx482zbJUYyYbqTH--126" vertex="1" connectable="0">
          <mxGeometry x="-46" y="58.33499999999998" width="112" height="20" as="geometry" />
        </mxCell>
        <mxCell id="KHrVx482zbJUYyYbqTH--128" value="conveys-requests" style="text;html=1;strokeColor=none;fillColor=none;align=center;verticalAlign=middle;whiteSpace=wrap;rounded=0;rotation=-90;" parent="KHrVx482zbJUYyYbqTH--127" vertex="1">
          <mxGeometry x="3" y="-6" width="100" height="20" as="geometry" />
        </mxCell>
        <mxCell id="KHrVx482zbJUYyYbqTH--129" value="" style="triangle;whiteSpace=wrap;html=1;fillColor=#000000;rotation=-90;" parent="KHrVx482zbJUYyYbqTH--126" vertex="1">
          <mxGeometry x="3" y="-1.6650000000000205" width="10" height="13.33" as="geometry" />
        </mxCell>
        <mxCell id="KHrVx482zbJUYyYbqTH--131" value="" style="group;rotation=0;" parent="1" vertex="1" connectable="0">
          <mxGeometry x="688" y="200" width="112" height="20" as="geometry" />
        </mxCell>
        <mxCell id="KHrVx482zbJUYyYbqTH--132" value="posts" style="text;html=1;strokeColor=none;fillColor=none;align=right;verticalAlign=middle;whiteSpace=wrap;rounded=0;rotation=0;" parent="KHrVx482zbJUYyYbqTH--131" vertex="1">
          <mxGeometry width="100" height="20" as="geometry" />
        </mxCell>
        <mxCell id="KHrVx482zbJUYyYbqTH--133" value="" style="triangle;whiteSpace=wrap;html=1;fillColor=#000000;rotation=0;" parent="KHrVx482zbJUYyYbqTH--131" vertex="1">
          <mxGeometry x="102" y="4" width="10" height="13.33" as="geometry" />
        </mxCell>
        <mxCell id="KHrVx482zbJUYyYbqTH--139" value="" style="group" parent="1" vertex="1" connectable="0">
          <mxGeometry x="644.7618181818182" y="60" width="91.23818181818183" height="20" as="geometry" />
        </mxCell>
        <mxCell id="KHrVx482zbJUYyYbqTH--135" value="provides-data" style="text;html=1;strokeColor=none;fillColor=none;align=center;verticalAlign=middle;whiteSpace=wrap;rounded=0;" parent="KHrVx482zbJUYyYbqTH--139" vertex="1">
          <mxGeometry width="85.23818181818183" height="20" as="geometry" />
        </mxCell>
        <mxCell id="KHrVx482zbJUYyYbqTH--138" value="" style="triangle;whiteSpace=wrap;html=1;fillColor=#000000;rotation=0;" parent="KHrVx482zbJUYyYbqTH--139" vertex="1">
          <mxGeometry x="81.23818181818183" y="5" width="10" height="13.33" as="geometry" />
        </mxCell>
        <mxCell id="KHrVx482zbJUYyYbqTH--140" value="" style="group" parent="1" vertex="1" connectable="0">
          <mxGeometry x="860.0018181818182" y="-20" width="91.23818181818183" height="20" as="geometry" />
        </mxCell>
        <mxCell id="KHrVx482zbJUYyYbqTH--141" value="provides-data" style="text;html=1;strokeColor=none;fillColor=none;align=center;verticalAlign=middle;whiteSpace=wrap;rounded=0;" parent="KHrVx482zbJUYyYbqTH--140" vertex="1">
          <mxGeometry width="85.23818181818183" height="20" as="geometry" />
        </mxCell>
        <mxCell id="KHrVx482zbJUYyYbqTH--142" value="" style="triangle;whiteSpace=wrap;html=1;fillColor=#000000;rotation=0;" parent="KHrVx482zbJUYyYbqTH--140" vertex="1">
          <mxGeometry x="81.23818181818183" y="5" width="10" height="13.33" as="geometry" />
        </mxCell>
        <mxCell id="KHrVx482zbJUYyYbqTH--143" value="" style="group;rotation=0;" parent="1" vertex="1" connectable="0">
          <mxGeometry x="800" y="134" width="73" height="20" as="geometry" />
        </mxCell>
        <mxCell id="KHrVx482zbJUYyYbqTH--144" value="generates" style="text;html=1;strokeColor=none;fillColor=none;align=center;verticalAlign=middle;whiteSpace=wrap;rounded=0;rotation=0;" parent="KHrVx482zbJUYyYbqTH--143" vertex="1">
          <mxGeometry width="65.17857142857143" height="20" as="geometry" />
        </mxCell>
        <mxCell id="KHrVx482zbJUYyYbqTH--145" value="" style="triangle;whiteSpace=wrap;html=1;fillColor=#000000;rotation=0;" parent="KHrVx482zbJUYyYbqTH--143" vertex="1">
          <mxGeometry x="66.48214285714286" y="4" width="6.517857142857143" height="13.33" as="geometry" />
        </mxCell>
        <mxCell id="KHrVx482zbJUYyYbqTH--147" value="" style="group" parent="1" vertex="1" connectable="0">
          <mxGeometry x="630" y="169.995" width="20" height="124.33499999999998" as="geometry" />
        </mxCell>
        <mxCell id="KHrVx482zbJUYyYbqTH--148" value="" style="group;rotation=90;" parent="KHrVx482zbJUYyYbqTH--147" vertex="1" connectable="0">
          <mxGeometry x="-46" y="58.33499999999998" width="112" height="20" as="geometry" />
        </mxCell>
        <mxCell id="KHrVx482zbJUYyYbqTH--149" value="conveys-requests" style="text;html=1;strokeColor=none;fillColor=none;align=center;verticalAlign=middle;whiteSpace=wrap;rounded=0;rotation=-90;" parent="KHrVx482zbJUYyYbqTH--148" vertex="1">
          <mxGeometry x="3" y="-6" width="100" height="20" as="geometry" />
        </mxCell>
        <mxCell id="KHrVx482zbJUYyYbqTH--150" value="" style="triangle;whiteSpace=wrap;html=1;fillColor=#000000;rotation=-90;" parent="KHrVx482zbJUYyYbqTH--147" vertex="1">
          <mxGeometry x="3" y="-1.6650000000000205" width="10" height="13.33" as="geometry" />
        </mxCell>
      </root>
    </mxGraphModel>
  </diagram>
</mxfile>
